{"title":"Deep Anal Drilling","uid":5845553,"size":2200415014,"categoryP":"porn","categoryS":"movies","magnet":"?xt=urn:btih:a24aa7090bb281858fccd722a80cc1c0cfbf554d&amp;dn=Deep+Anal+Drilling&amp;tr=udp%3A%2F%2Ftracker.openbittorrent.com%3A80&amp;tr=udp%3A%2F%2Fopen.demonii.com%3A1337&amp;tr=udp%3A%2F%2Ftracker.coppersurfer.tk%3A6969&amp;tr=udp%3A%2F%2Fexodus.desync.com%3A6969","seeders":0,"leechers":0,"uploader":null,"files":1,"time":1285113848,"description":" &lt;a href=&quot;http://www.picswan.com/img/share.php?id=76D4_4C99D44A&quot; rel=&quot;nofollow&quot; target=&quot;_NEW&quot;&gt;http://www.picswan.com/img/share.php?id=76D4_4C99D44A&lt;/a&gt;\n &lt;a href=&quot;\nhttp://www.picswan.com/img/share.php?id=46FF_4C99D379&quot; rel=&quot;nofollow&quot; target=&quot;_NEW&quot;&gt;\nhttp://www.picswan.com/img/share.php?id=46FF_4C99D379&lt;/a&gt;\n\nGeneral\nComplete name                    : Deep Anal Drilling.avi\nFormat                           : AVI\nFormat/Info                      : Audio Video Interleave\nFile size                        : 2.05 GiB\nDuration                         : 3h 4mn\nOverall bit rate                 : 1 588 Kbps\nWriting application              : Nandub v1.0rc2\nWriting library                  : Boilsoft AVI tool build 1/release\n\nVideo\nID                               : 0\nFormat                           : MPEG-4 Visual\nFormat settings, BVOP            : No\nFormat settings, QPel            : No\nFormat settings, GMC             : No warppoints\nFormat settings, Matrix          : Default (H.263)\nCodec ID                         : XVID\nCodec ID/Hint                    : XviD\nDuration                         : 3h 4mn\nBit rate                         : 1 441 Kbps\nWidth                            : 576 pixels\nHeight                           : 320 pixels\nDisplay aspect ratio             : 16:9\nFrame rate                       : 29.970 fps\nColor space                      : YUV\nChroma subsampling               : 4:2:0\nBit depth                        : 8 bits\nScan type                        : Progressive\nBits/(Pixel*Frame)               : 0.261\nStream size                      : 1.86 GiB (91%)\n\nAudio\nID                               : 1\nFormat                           : MPEG Audio\nFormat version                   : Version 1\nFormat profile                   : Layer 3\nCodec ID                         : 55\nCodec ID/Hint                    : MP3\nDuration                         : 3h 4mn\nBit rate mode                    : Variable\nBit rate                         : 133 Kbps\nMinimum bit rate                 : 128 Kbps\nChannel(s)                       : 2 channels\nSampling rate                    : 48.0 KHz\nStream size                      : 176 MiB (8%)\nAlignment                        : Aligned on interleaves\nInterleave, duration             : 24 ms (0.72 video frame)\nInterleave, preload duration     : 552 ms\nWriting library                  : LAME3.91 \nEncoding settings                : -m s -V 7 -q 5 -lowpass 15.2 --vbr-old -b 128\n\n","torrent":{"xt":"urn:btih:a24aa7090bb281858fccd722a80cc1c0cfbf554d","amp;dn":"Deep+Anal+Drilling","amp;tr":["udp%3A%2F%2Ftracker.openbittorrent.com%3A80","udp%3A%2F%2Fopen.demonii.com%3A1337","udp%3A%2F%2Ftracker.coppersurfer.tk%3A6969","udp%3A%2F%2Fexodus.desync.com%3A6969"],"infoHash":"a24aa7090bb281858fccd722a80cc1c0cfbf554d","infoHashBuffer":{"type":"Buffer","data":[162,74,167,9,11,178,129,133,143,204,215,34,168,12,193,192,207,191,85,77]},"announce":[],"urlList":[]}}